<svg viewBox="0 0 52 26" xmlns="http://www.w3.org/2000/svg"><path fill="#FFFFFF" d="m17.488 19.149 7.634 2.06L27.036 25l-1.593 1-8.986-5.465 1.03-1.386Z"/><path fill="#FFFFFF" d="M27.633 15.913h-5.024s-1.004.135-1.88-1.01c-.688-.904-1.224-1.787-1.224-1.787L0 .878s.526 1.683 1.51 4.047l16.122 9.03-15.17-6.86c.425.915.898 1.878 1.422 2.85l12.765 5.128-11.777-3.399c.445.744.918 1.478 1.42 2.187l9.636 2.661-8.6-1.302c.473.586.964 1.143 1.478 1.654l6.304.832H9.7c1.672 1.441 3.527 2.402 5.548 2.508.047.009 1.666-2.158 1.667-2.16l9.356 2.432 2.213 4.372 6.78-4.104-7.631-4.841Z"/><path fill="#FFFFFF" d="m36.715 17.916 6.403-.897c.507-.546.992-1.14 1.46-1.762l-8.682 1.399 9.706-2.855c.492-.75.953-1.528 1.394-2.314l-11.82 3.626 12.784-5.47a55.014 55.014 0 0 0 1.388-3.013l-15.156 7.293L50.27 4.338C51.238 1.805 51.754 0 51.754 0L32.402 13.03s-.604.154-2.05.154c-1.445 0-1.788-.154-2.535-.61-.744-.455-1.77-1.317-1.77-1.317s-1.104.902-1.792 1.327c-.762.47-.943.608-2.588.608H21.193s.673 1.361 1.328 1.662h5.688l8.443 5.7c2.036-.079 3.9-1.095 5.57-2.638h-5.507Z"/></svg>